:SAMPLES-PER-SECOND 30
:FULLY-SPECIFIED
:DEGREES
526
root  -1.64116 37.5537 2.27756 -1.98142 -5.77412 -4.70655
RightUpLeg  18.1551 -9.86805 0.953231
RightLeg  10.5471 -0.585988 -0.508696
RightFoot  -24.0728 0.540451 6.30071
RightToes  -5.82094e-011 -1.98785e-016 -5.10186e-018
Spine  2.16724 9.93321 24.1394
Spine1  -3.5504 14.1925 -21.6315
HEad  7.30863 -12.8965 2.3921
LeftShoulder1  -1.04087 12.6929 -3.1872
LeftArm  -46.864 13.0178 -13.2878
LeftForeArm  50.2045 -37.509 -5.62516
LeftHand  -0.0127692 3.75207 -0.81192
RightShoulder  2.23604 7.73378 12.8981
RightArm  -2.45041 17.5041 17.9053
RightForeArm  10.5434 25.5636 4.92713
RightHand  -2.20838 7.35261 -20.2401
LeftUpLeg  -30.4929 2.19077 5.26912
LeftLeg  2.19988 11.2271 0.631564
LeftFoot  -7.78832 0.20131 -5.02793
LeftToes  -8.4584e-011 5.90861e-011 8.40072e-012
527
root  -1.6086 37.1213 4.50971 -2.18904 -6.44517 -4.56308
RightUpLeg  22.8106 -10.2584 -1.0219
RightLeg  9.29948 1.1367 -0.302864
RightFoot  -23.6608 0.686724 7.85
RightToes  -5.82094e-011 -1.98785e-016 -5.10186e-018
Spine  2.36534 11.2038 25.9389
Spine1  -4.7746 15.9431 -25.5224
HEad  8.3082 -14.6637 3.37276
LeftShoulder1  -0.746924 14.9422 2.28855
LeftArm  -52.0167 8.31067 -9.36986
LeftForeArm  55.1329 -41.1154 -6.34756
LeftHand  -0.0495375 2.98441 1.67673
RightShoulder  1.68679 7.22781 8.26795
RightArm  -8.05758 20.6238 14.0787
RightForeArm  10.7997 27.1051 5.25925
RightHand  -2.18881 7.19246 -20.3122
LeftUpLeg  -31.1068 2.16933 5.74056
LeftLeg  -2.32807 14.2224 0.0378709
LeftFoot  -9.39949 0.150585 -5.57703
LeftToes  -8.4584e-011 5.90861e-011 8.40072e-012
528
root  -1.43294 36.6581 6.95762 -2.7543 -6.91057 -4.28729
RightUpLeg  27.4894 -11.1318 -4.57677
RightLeg  9.6349 4.80291 0.606515
RightFoot  -21.4773 0.78459 10.4136
RightToes  -5.82094e-011 -1.98785e-016 -5.10186e-018
Spine  1.84032 12.349 28.4928
Spine1  -5.08615 17.72 -29.9156
HEad  9.80195 -16.5712 4.5005
LeftShoulder1  -0.2292 16.5809 7.68211
LeftArm  -55.3797 4.41341 -5.84806
LeftForeArm  58.2509 -44.5364 -7.20103
LeftHand  -0.106225 1.87533 3.29687
RightShoulder  1.31874 6.77406 4.98961
RightArm  -13.0639 22.2248 10.0867
RightForeArm  12.611 28.0601 5.38232
RightHand  -2.49328 8.20105 -21.3719
LeftUpLeg  -31.3096 2.35363 5.58167
LeftLeg  -0.6014 17.2227 0.490777
LeftFoot  -10.502 0.108756 -4.65074
LeftToes  -8.4584e-011 5.90861e-011 8.40072e-012
529
root  -1.16704 36.2152 9.49393 -4.66147 -7.05883 -3.7188
RightUpLeg  32.1484 -11.3411 -9.0216
RightLeg  12.6738 8.03025 1.85034
RightFoot  -16.2699 0.448168 13.8625
RightToes  -5.82094e-011 -1.98785e-016 -5.10186e-018
Spine  2.98564 12.9699 29.7042
Spine1  -6.67648 18.6073 -32.6759
HEad  12.6481 -17.5427 4.50548
LeftShoulder1  0.31244 18.1599 12.063
LeftArm  -55.5001 0.194562 -2.88495
LeftForeArm  58.0095 -47.1044 -8.0416
LeftHand  -0.158134 2.36603 5.73386
RightShoulder  0.923474 6.07479 1.3649
RightArm  -15.1466 22.0528 8.14926
RightForeArm  11.91 29.6201 5.78688
RightHand  -2.824 8.60108 -23.4532
LeftUpLeg  -29.7571 3.63196 4.32261
LeftLeg  6.15651 21.4141 2.28372
LeftFoot  -10.1997 0.0697578 -1.49954
LeftToes  -8.4584e-011 5.90861e-011 8.40072e-012
530
root  -0.920165 35.9494 11.8078 -7.18547 -5.99446 -2.42883
RightUpLeg  32.7859 -9.72651 -12.0356
RightLeg  22.03 6.92588 2.68307
RightFoot  -5.49905 -0.954113 17.9892
RightToes  -5.82094e-011 -1.98785e-016 -5.10186e-018
Spine  6.25566 12.7533 28.0871
Spine1  -10.2897 17.9974 -33.927
HEad  15.8683 -18.6548 4.80946
LeftShoulder1  0.83862 19.2869 15.6619
LeftArm  -53.8026 -4.45266 -0.815317
LeftForeArm  58.9879 -48.264 -8.39988
LeftHand  -0.210492 2.36507 7.74856
RightShoulder  0.605307 5.23975 -1.72878
RightArm  -15.2717 19.4663 7.46309
RightForeArm  13.7375 31.6008 6.17754
RightHand  -2.86301 9.23073 -22.7679
LeftUpLeg  -28.0544 7.35623 0.816117
LeftLeg  12.4012 20.1822 4.35054
LeftFoot  -1.68286 -0.110255 0.994075
LeftToes  -8.4584e-011 5.90861e-011 8.40072e-012
